<svg id="visual" viewBox="0 0 600 900" width="600" height="900" xmlns="http://www.w3.org/2000/svg" xmlns:xlink="http://www.w3.org/1999/xlink" version="1.1"><rect x="0" y="0" width="600" height="900" fill="#473f54"></rect><path d="M0 408L16.7 364.8C33.3 321.7 66.7 235.3 100 244.5C133.3 253.7 166.7 358.3 200 354.7C233.3 351 266.7 239 300 237C333.3 235 366.7 343 400 404.5C433.3 466 466.7 481 500 449.8C533.3 418.7 566.7 341.3 583.3 302.7L600 264L600 0L583.3 0C566.7 0 533.3 0 500 0C466.7 0 433.3 0 400 0C366.7 0 333.3 0 300 0C266.7 0 233.3 0 200 0C166.7 0 133.3 0 100 0C66.7 0 33.3 0 16.7 0L0 0Z" fill="#FF0066" stroke-linecap="round" stroke-linejoin="miter"></path></svg>