<svg id="visual" viewBox="0 0 900 600" width="900" height="600" xmlns="http://www.w3.org/2000/svg" xmlns:xlink="http://www.w3.org/1999/xlink" version="1.1"><rect x="0" y="0" width="900" height="600" fill="#473f54"></rect><path d="M0 258L21.5 250.8C43 243.7 86 229.3 128.8 235.7C171.7 242 214.3 269 257.2 260C300 251 343 206 385.8 189.5C428.7 173 471.3 185 514.2 208.2C557 231.3 600 265.7 642.8 275.8C685.7 286 728.3 272 771.2 242C814 212 857 166 878.5 143L900 120L900 0L878.5 0C857 0 814 0 771.2 0C728.3 0 685.7 0 642.8 0C600 0 557 0 514.2 0C471.3 0 428.7 0 385.8 0C343 0 300 0 257.2 0C214.3 0 171.7 0 128.8 0C86 0 43 0 21.5 0L0 0Z" fill="#FF0066" stroke-linecap="round" stroke-linejoin="miter"></path></svg>