<svg id="visual" viewBox="0 0 960 540" width="960" height="540" xmlns="http://www.w3.org/2000/svg" xmlns:xlink="http://www.w3.org/1999/xlink" version="1.1"><rect x="0" y="0" width="960" height="540" fill="#333137"></rect><path d="M0 244L26.7 218.2C53.3 192.3 106.7 140.7 160 146.3C213.3 152 266.7 215 320 212.8C373.3 210.7 426.7 143.3 480 142C533.3 140.7 586.7 205.3 640 242.2C693.3 279 746.7 288 800 269.3C853.3 250.7 906.7 204.3 933.3 181.2L960 158L960 0L933.3 0C906.7 0 853.3 0 800 0C746.7 0 693.3 0 640 0C586.7 0 533.3 0 480 0C426.7 0 373.3 0 320 0C266.7 0 213.3 0 160 0C106.7 0 53.3 0 26.7 0L0 0Z" fill="#000000" stroke-linecap="round" stroke-linejoin="miter"></path></svg>